<?xml version="1.0" encoding="UTF-8"?>
<!DOCTYPE svg PUBLIC "-//W3C//DTD SVG 1.1//EN" "http://www.w3.org/Graphics/SVG/1.1/DTD/svg11.dtd">
<!-- Creator: CorelDRAW -->
<svg xmlns="http://www.w3.org/2000/svg" xml:space="preserve" width="6.82666in" height="6.82666in" style="shape-rendering:geometricPrecision; text-rendering:geometricPrecision; image-rendering:optimizeQuality; fill-rule:evenodd; clip-rule:evenodd"
viewBox="0 0 6.82666 6.82666"
 xmlns:xlink="http://www.w3.org/1999/xlink">
 <defs>
  <style type="text/css">
   <![CDATA[
    .fil2 {fill:none}
    .fil0 {fill:#424242}
    .fil1 {fill:#64B5F6}
   ]]>
  </style>
 </defs>
 <g id="Layer_x0020_1">
  <metadata id="CorelCorpID_0Corel-Layer"/>
  <path class="fil0" d="M5.29678 1.97176l0 0.301181 0 3.70039 -3.76691 0 0 -3.70039 0 -0.301181 0 -1.11843 3.76691 0 0 1.11843zm-1.74428 3.20156l0 0.426673 0.555713 0 0 -0.426673 -0.555713 0zm-0.834059 0l0 0.426673 0.555713 0 0 -0.426673 -0.555713 0zm-0.278346 0l-0.555713 0 0 0.426673 0.555713 0 0 -0.426673zm0 -0.266657l0 -0.426673 -0.555713 0 0 0.426673 0.555713 0zm0.834059 0l0 -0.426673 -0.555713 0 0 0.426673 0.555713 0zm0.834059 0l0 -0.426673 -0.555713 0 0 0.426673 0.555713 0zm0.278346 -0.426673l0 1.12 0.555713 0 0 -1.12 -0.555713 0zm-0.834059 -0.693331l0 0.426673 0.555713 0 0 -0.426673 -0.555713 0zm-0.834059 0l0 0.426673 0.555713 0 0 -0.426673 -0.555713 0zm-0.278346 0l-0.555713 0 0 0.426673 0.555713 0 0 -0.426673zm0 -0.266657l0 -0.426673 -0.555713 0 0 0.426673 0.555713 0zm0.834059 0l0 -0.426673 -0.555713 0 0 0.426673 0.555713 0zm0.834059 0l0 -0.426673 -0.555713 0 0 0.426673 0.555713 0zm0.834059 -0.426673l-0.555713 0 0 1.12 0.555713 0 0 -1.12zm-0.555713 -0.693331l0 0.426673 0.555713 0 0 -0.426673 -0.555713 0zm-0.834059 0l0 0.426673 0.555713 0 0 -0.426673 -0.555713 0zm-0.834059 0l0 0.426673 0.555713 0 0 -0.426673 -0.555713 0zm-0.278346 0.426673l0 -0.426673 -0.555713 0 0 0.426673 0.555713 0zm-0.609043 -0.854909l3.16455 0 0 -0.817244 -3.16455 0 0 0.817244z"/>
  <g id="_459760448">
   <polygon id="_459760088" class="fil1" points="1.88439,1.91843 4.94228,1.91843 4.94228,1.20784 1.88439,1.20784 "/>
  </g>
 </g>
 <rect class="fil2" width="6.82666" height="6.82666"/>
</svg>
